# xmcd
#
# Track frame offsets:
#	150
#	17112
#	27574
#	39394
#	51262
#	60462
#	72365
#	83531
#	92205
#	102239
#	112218
#	120663
#
# Disc length: 1785 seconds
#
# Revision: 0
# Processed by: cddbd v1.5.2PL0 Copyright (c) Steve Scherf et al.
# Submitted via: EasyCDDAExtractor 10.2.0.1
#
DISCID=a006f70c
DTITLE=The Principles - I Don't Like The Devil
DYEAR=1996
DGENRE=Gospel
TTITLE0=Waiting For The master To Come
TTITLE1=I Don't Like The Devil
TTITLE2=Road To Jericho
TTITLE3=So Much To Thank Him For
TTITLE4=I'm Saved
TTITLE5=I Wasn't There
TTITLE6=It's Worth It All
TTITLE7=I See Jesus
TTITLE8=Mama's Bible
TTITLE9=Don't Weaken The Wheel
TTITLE10=God Knows 
TTITLE11=Talk About Jesus
EXTD=
EXTT0=
EXTT1=
EXTT2=
EXTT3=
EXTT4=
EXTT5=
EXTT6=
EXTT7=
EXTT8=
EXTT9=
EXTT10=
EXTT11=
PLAYORDER=
